<mxfile host="app.diagrams.net" agent="Mozilla/5.0 (Windows NT 10.0; Win64; x64) AppleWebKit/537.36 (KHTML, like Gecko) Chrome/131.0.0.0 Safari/537.36 OPR/116.0.0.0 (Edition std-2)" version="26.0.16">
  <diagram name="PÃ¡gina-1" id="ZVFehZVy44ewVObcNapo">
    <mxGraphModel dx="1248" dy="537" grid="1" gridSize="10" guides="1" tooltips="1" connect="1" arrows="1" fold="1" page="1" pageScale="1" pageWidth="827" pageHeight="1169" math="0" shadow="0">
      <root>
        <mxCell id="0" />
        <mxCell id="1" parent="0" />
        <mxCell id="aTriftzilAiwtQ7li0FP-3" value="Universidad" style="swimlane;fontStyle=1;align=center;verticalAlign=top;childLayout=stackLayout;horizontal=1;startSize=26;horizontalStack=0;resizeParent=1;resizeParentMax=0;resizeLast=0;collapsible=1;marginBottom=0;whiteSpace=wrap;html=1;" vertex="1" parent="1">
          <mxGeometry x="414" y="110" width="180" height="220" as="geometry" />
        </mxCell>
        <mxCell id="aTriftzilAiwtQ7li0FP-4" value="- nombreProfesor: String&lt;div&gt;- numeroEmpleado: int&lt;/div&gt;&lt;div&gt;- areaEspecializacion: String&lt;/div&gt;&lt;div&gt;- nombreCurso: String&lt;/div&gt;&lt;div&gt;- codigoCurso: int&lt;/div&gt;&lt;div&gt;- creditos: int&lt;/div&gt;&lt;div&gt;- nombreEstudiante: String&lt;/div&gt;&lt;div&gt;- numeroMatricula: int&lt;/div&gt;&lt;div&gt;- correo: String&lt;/div&gt;" style="text;strokeColor=none;fillColor=none;align=left;verticalAlign=top;spacingLeft=4;spacingRight=4;overflow=hidden;rotatable=0;points=[[0,0.5],[1,0.5]];portConstraint=eastwest;whiteSpace=wrap;html=1;" vertex="1" parent="aTriftzilAiwtQ7li0FP-3">
          <mxGeometry y="26" width="180" height="144" as="geometry" />
        </mxCell>
        <mxCell id="aTriftzilAiwtQ7li0FP-5" value="" style="line;strokeWidth=1;fillColor=none;align=left;verticalAlign=middle;spacingTop=-1;spacingLeft=3;spacingRight=3;rotatable=0;labelPosition=right;points=[];portConstraint=eastwest;strokeColor=inherit;" vertex="1" parent="aTriftzilAiwtQ7li0FP-3">
          <mxGeometry y="170" width="180" height="8" as="geometry" />
        </mxCell>
        <mxCell id="aTriftzilAiwtQ7li0FP-6" value="+ impartirCurso()&lt;div&gt;+ inscribirEstudiante()&lt;/div&gt;" style="text;strokeColor=none;fillColor=none;align=left;verticalAlign=top;spacingLeft=4;spacingRight=4;overflow=hidden;rotatable=0;points=[[0,0.5],[1,0.5]];portConstraint=eastwest;whiteSpace=wrap;html=1;" vertex="1" parent="aTriftzilAiwtQ7li0FP-3">
          <mxGeometry y="178" width="180" height="42" as="geometry" />
        </mxCell>
      </root>
    </mxGraphModel>
  </diagram>
</mxfile>
